<?xml version="1.0" encoding="UTF-8"?>
<svg id="Capa_1" xmlns="http://www.w3.org/2000/svg" version="1.1" viewBox="0 0 1080 1080">
  <!-- Generator: Adobe Illustrator 29.3.1, SVG Export Plug-In . SVG Version: 2.1.0 Build 151)  -->
  <defs>
    <style>
      .st0 {
        fill: #e60026;
      }
    </style>
  </defs>
  <g>
    <path class="st0" d="M583.6,653.83c11.19-54.91-46.98-113.83-46.98-113.83-117.09,131.36,3.38,190.64,3.38,190.64,85.76-21.55,80.89-104.95,80.89-104.95-20.88,29.89-37.29,28.15-37.29,28.15Z"/>
    <path class="st0" d="M836.86,407.44c-175.21-207.91-418.5-207.91-593.71,0l-111.71,132.56,111.71,132.55c175.21,207.91,418.5,207.91,593.71,0l111.71-132.55-111.71-132.56ZM550.29,765.5c-53.78,10.97-161.09-52.94-161.09-139.93,0-138.68,167.05-235.38,129.27-312.3,0,0,114.35,124.18,116.34,240.02,0,0,21.13-22.13,21.87-74.14,0,0,126.04,238.97-106.4,286.35Z"/>
  </g>
  <circle class="st0" cx="875.82" cy="194.12" r="53.51"/>
</svg>