<?xml version="1.0" encoding="UTF-8"?>
<svg id="Capa_1" xmlns="http://www.w3.org/2000/svg" version="1.1" viewBox="0 0 1080 1080">
  <!-- Generator: Adobe Illustrator 29.3.1, SVG Export Plug-In . SVG Version: 2.1.0 Build 151)  -->
  <defs>
    <style>
      .st0 {
        fill: #1f0f14;
      }

      .st1 {
        fill: #333131;
      }

      .st2 {
        fill: #e60026;
      }
    </style>
  </defs>
  <rect class="st0" x="65.11" y="65.11" width="949.79" height="949.79" rx="73.04" ry="73.04"/>
  <path class="st2" d="M243.14,672.56l-111.71-132.56,111.71-132.56c175.21-207.91,418.5-207.91,593.71,0l111.71,132.56-111.71,132.56c-175.21,207.91-418.5,207.91-593.71,0Z"/>
  <path class="st1" d="M656.68,479.15c-.75,52.01-21.87,74.14-21.87,74.14-1.99-115.84-116.34-240.02-116.34-240.02,37.78,76.92-129.27,173.61-129.27,312.3,0,86.99,107.3,150.9,161.09,139.93,232.43-47.37,106.4-286.35,106.4-286.35ZM540,730.64s-120.47-59.28-3.38-190.64c0,0,58.17,58.93,46.98,113.83,0,0,16.41,1.74,37.29-28.15,0,0,4.88,83.41-80.89,104.95Z"/>
  <circle class="st2" cx="875.82" cy="194.12" r="53.51"/>
</svg>